<svg id="Capa_1" enable-background="new 0 0 511.767 511.767" height="512" viewBox="0 0 511.767 511.767" width="512" xmlns="http://www.w3.org/2000/svg"><g><path d="m442.787 243.591c-27.34-35.69-79.646-39.314-112.865-9.625v-189.199c-2.467-59.69-87.534-59.69-90 0v60.58c-14.975-5.642-33.687-1.692-45 8.915-11.31-10.607-30.028-14.557-45-8.915v-8.58c0-24.813-20.187-45-45-45s-45 20.187-45 45v252.079l30 70v92.921h210v-135.76l151.923-120.706zm-217.865-110.824c8.271 0 15 6.729 15 15v44c-.818 19.888-29.174 19.905-30 0v-44c0-8.271 6.729-15 15-15zm-60 0c8.271 0 15 6.729 15 15v44c0 8.271-6.729 15-15 15s-15-6.729-15-15v-44c0-8.271 6.729-15 15-15zm105 228.76v120.24h-150v-69.079l-30-70v-245.921c.812-19.874 29.168-19.918 30 0v51c.006 2.698-.004 47.677 0 49h.284c3.867 36.053 47.867 52.889 74.716 28.505 28.392 25.811 75.128 5.251 75-33.505 0 .001 0-126.737 0-146.999 0-8.271 6.729-15 15-15s15 6.729 15 15v205.386c-51.804 5.865-88.043 34.682-113.633 79.526l25.266 16.176 9.796-15.302c21.382-33.632 58.944-52.717 98.657-51.199l33.804-25.899c16.222-12.429 38.151-12.507 54.304-1.726z"/></g></svg>